<svg width="19" height="19" viewBox="0 0 19 19" fill="none" xmlns="http://www.w3.org/2000/svg">
<g clip-path="url(#clip0_3_3555)">
<path d="M1.30513 1.28296C1.13638 1.38843 1.052 1.54663 1.052 1.77515C1.052 2.00366 1.13638 2.16187 1.30513 2.26733C1.4106 2.33062 1.48442 2.33765 2.09614 2.33765H2.77114L2.79224 2.4853C2.80278 2.56968 3.02427 4.66851 3.28442 7.14702C3.54458 9.62905 3.77661 11.7279 3.79771 11.8052C3.8645 12.0513 4.00513 12.2904 4.21255 12.5083C4.44106 12.7509 4.62739 12.8669 4.92271 12.9583C5.12661 13.0216 5.33052 13.0251 9.827 13.0251C14.4852 13.0251 14.5204 13.0251 14.7383 12.9513C14.8579 12.9126 15.0301 12.8318 15.125 12.772C15.3711 12.6173 15.6559 12.2798 15.7614 12.0302C15.8211 11.8896 16.1094 10.6169 16.5594 8.50757C17.3399 4.8478 17.3153 5.0271 17.1149 4.62632C17.0024 4.3978 16.8512 4.24663 16.6157 4.12358L16.468 4.04272L10.2911 4.03218C4.27231 4.02515 4.1106 4.02163 4.1106 3.95835C4.1106 3.92319 4.05435 3.37476 3.98755 2.74194C3.85396 1.4939 3.84341 1.44116 3.61841 1.29351C3.50591 1.21265 3.48481 1.21265 2.46177 1.21265C1.48442 1.21265 1.41411 1.21616 1.30513 1.28296ZM15.4028 8.33882C14.6645 11.7841 14.6961 11.6787 14.436 11.8228C14.3305 11.8791 14.0422 11.8826 9.82349 11.8826C5.70317 11.8826 5.31294 11.8791 5.21802 11.8228C5.0563 11.7349 4.96138 11.6154 4.91919 11.4431C4.88755 11.3166 4.25122 5.35405 4.25122 5.19233C4.25122 5.16069 5.45708 5.15015 10.168 5.15015H16.0848L15.4028 8.33882Z" fill="#1C1C1C"/>
<path d="M5.5801 14.217C5.07034 14.3822 4.6344 14.8287 4.48323 15.342C4.4094 15.5916 4.4094 16.0838 4.48323 16.3334C4.6344 16.8537 5.07385 17.2966 5.59065 17.4584C5.87893 17.5498 6.35002 17.5498 6.63831 17.4584C7.1551 17.2966 7.59456 16.8537 7.74573 16.3334C7.81956 16.0838 7.81956 15.5916 7.74573 15.342C7.59456 14.8216 7.1551 14.3787 6.63831 14.217C6.35354 14.1291 5.85784 14.1291 5.5801 14.217ZM6.3887 15.3806C6.84573 15.6584 6.64885 16.365 6.11448 16.365C5.81565 16.365 5.58713 16.1365 5.58713 15.8377C5.58713 15.5388 5.81565 15.3103 6.11448 15.3103C6.2094 15.3103 6.31838 15.3384 6.3887 15.3806Z" fill="#1C1C1C"/>
<path d="M12.3301 14.2169C12.07 14.3013 11.8239 14.4595 11.627 14.6705C11.3071 15.0115 11.177 15.3525 11.177 15.8376C11.177 16.3228 11.3071 16.6638 11.627 17.0048C11.961 17.3599 12.3512 17.5251 12.8645 17.5251C13.3778 17.5251 13.768 17.3599 14.102 17.0048C14.4219 16.6638 14.552 16.3228 14.552 15.8376C14.552 15.3525 14.4219 15.0115 14.102 14.6705C13.9016 14.456 13.6555 14.3013 13.3883 14.2169C13.1036 14.1291 12.6079 14.1291 12.3301 14.2169ZM13.1387 15.3806C13.5958 15.6583 13.3989 16.365 12.8645 16.365C12.5657 16.365 12.3372 16.1365 12.3372 15.8376C12.3372 15.5388 12.5657 15.3103 12.8645 15.3103C12.9594 15.3103 13.0684 15.3384 13.1387 15.3806Z" fill="#1C1C1C"/>
</g>
<defs>
<clipPath id="clip0_3_3555">
<rect width="18" height="18" fill="white" transform="translate(0.489502 0.650146)"/>
</clipPath>
</defs>
</svg>
