<svg width="19" height="19" viewBox="0 0 19 19" fill="none" xmlns="http://www.w3.org/2000/svg">
<g clip-path="url(#clip0_3_3538)">
<g clip-path="url(#clip1_3_3538)">
<path d="M2.19556 0.811865C1.58735 0.959522 1.10923 1.44819 0.961572 2.06343C0.884229 2.3939 0.884229 6.78491 0.961572 7.11538C1.11626 7.76577 1.66118 8.27554 2.31509 8.38101C2.45923 8.40562 3.38735 8.41968 4.7936 8.41968C7.23696 8.41968 7.32485 8.41265 7.69751 8.2228C8.10532 8.0189 8.40415 7.66733 8.53774 7.23491C8.60454 7.01343 8.60806 6.91147 8.60806 4.58765C8.60806 2.27437 8.60454 2.15835 8.53774 1.9439C8.35493 1.34624 7.86274 0.906787 7.25454 0.794287C7.11743 0.769678 6.24907 0.755615 4.72681 0.759131C2.84595 0.762647 2.36431 0.769678 2.19556 0.811865ZM7.17368 2.19351L7.2897 2.29546L7.30024 4.52437C7.30728 6.14858 7.29673 6.77437 7.2686 6.84819C7.24751 6.90093 7.18774 6.97827 7.13853 7.01343C7.05415 7.08022 6.98384 7.08374 4.78657 7.08374C3.18696 7.08374 2.4979 7.07319 2.44517 7.04507C2.40298 7.02397 2.3397 6.97124 2.30806 6.92905C2.25181 6.86226 2.24478 6.68296 2.24478 4.5771V2.29546L2.34673 2.19351L2.44868 2.09155H4.75493H7.06118L7.17368 2.19351Z" fill="#1C1C1C"/>
<path d="M14.3913 0.794311C12.7635 1.0158 11.4698 2.20759 11.1358 3.79666C11.0444 4.22205 11.0374 4.92165 11.1217 5.32595C11.4628 6.99236 12.7741 8.18767 14.4757 8.38455C15.1296 8.46189 15.8819 8.33181 16.5077 8.03298C17.9034 7.37205 18.7788 5.89548 18.6874 4.35916C18.5819 2.65759 17.362 1.2197 15.7132 0.861108C15.3405 0.776732 14.7253 0.748608 14.3913 0.794311ZM15.6147 2.20759C16.1737 2.39041 16.7292 2.82986 17.021 3.32556C17.3233 3.84236 17.4428 4.57712 17.3092 5.12556C17.0983 6.00095 16.469 6.6865 15.6217 6.96775C15.3792 7.04861 15.2807 7.06267 14.8835 7.06267C14.5354 7.06619 14.3772 7.05212 14.219 7.00291C13.6987 6.84119 13.2241 6.5283 12.9217 6.14158C12.7038 5.86033 12.4928 5.41033 12.4225 5.07283C12.1589 3.74744 13.0132 2.44665 14.3561 2.1408C14.6866 2.06697 15.2772 2.09509 15.6147 2.20759Z" fill="#1C1C1C"/>
<path d="M2.25886 10.9334C1.62605 11.0705 1.10574 11.5837 0.979177 12.1919C0.954568 12.3185 0.944021 13.1552 0.951052 14.8181L0.961599 17.2615L1.04246 17.4654C1.22176 17.9084 1.60144 18.2775 2.05144 18.4462C2.26238 18.5271 2.26941 18.5271 4.67761 18.5377C6.7659 18.5447 7.12449 18.5412 7.3284 18.4919C7.96121 18.3443 8.44285 17.8662 8.59051 17.2369C8.66785 16.9064 8.66785 12.5154 8.59051 12.1849C8.478 11.7209 8.13699 11.2814 7.72215 11.0705C7.36004 10.8877 7.26511 10.8806 4.77605 10.8841C3.00066 10.8841 2.4241 10.8982 2.25886 10.9334ZM7.13152 12.2693C7.18777 12.2974 7.25105 12.3537 7.27215 12.3888C7.29324 12.4345 7.3073 13.2396 7.3073 14.7302V17.0048L7.20535 17.1068L7.1034 17.2087H4.80418C2.25535 17.2087 2.39597 17.2228 2.29402 16.9767C2.22019 16.8044 2.22019 12.6209 2.29402 12.4486C2.39597 12.2025 2.25886 12.2166 4.76902 12.2166C6.71668 12.2166 7.04363 12.2236 7.13152 12.2693Z" fill="#1C1C1C"/>
<path d="M12.3135 10.9333C11.7158 11.0634 11.2483 11.4888 11.069 12.0654C11.0022 12.2869 10.9987 12.3888 10.9987 14.7126C10.9987 17.0259 11.0022 17.1419 11.069 17.3564C11.2518 17.9505 11.7475 18.397 12.3487 18.506C12.4858 18.5306 13.3436 18.5447 14.8623 18.5447C16.7959 18.5447 17.2037 18.5341 17.3936 18.4919C18.0158 18.3443 18.4975 17.8626 18.6451 17.2369C18.7225 16.9064 18.7225 12.5154 18.6451 12.1849C18.5326 11.7208 18.1916 11.2814 17.7768 11.0705C17.4147 10.8876 17.3198 10.8806 14.8307 10.8841C13.0553 10.8841 12.4787 10.8982 12.3135 10.9333ZM17.1615 12.2552C17.2037 12.2763 17.267 12.3291 17.2987 12.3712C17.3549 12.438 17.3619 12.6173 17.3619 14.7232V17.0048L17.26 17.1068L17.158 17.2087H14.8518H12.5455L12.433 17.1068L12.317 17.0048L12.3065 14.7759C12.2994 13.1517 12.31 12.5259 12.3381 12.4521C12.3592 12.3994 12.419 12.322 12.4682 12.2869C12.5526 12.2201 12.6229 12.2166 14.8201 12.2166C16.4198 12.2166 17.1088 12.2271 17.1615 12.2552Z" fill="#1C1C1C"/>
</g>
</g>
<defs>
<clipPath id="clip0_3_3538">
<rect width="18" height="18" fill="white" transform="translate(0.803345 0.650146)"/>
</clipPath>
<clipPath id="clip1_3_3538">
<rect width="18" height="18" fill="white" transform="translate(0.803345 0.650146)"/>
</clipPath>
</defs>
</svg>
