<svg width="19" height="19" viewBox="0 0 19 19" fill="none" xmlns="http://www.w3.org/2000/svg">
<g clip-path="url(#clip0_3_3532)">
<path d="M9.22505 2.16186C8.69067 2.2392 8.08247 2.47123 7.65708 2.77006C7.39692 2.95287 3.40317 6.24701 3.1606 6.48256C2.75278 6.86928 2.43286 7.43529 2.28521 8.01889L2.20435 8.33178V11.408C2.20435 14.2099 2.21138 14.5052 2.26411 14.7197C2.52075 15.7216 3.07622 16.4388 3.92349 16.8642C4.42974 17.1208 4.59849 17.1455 5.76567 17.1665C6.63052 17.1771 6.83442 17.1701 7.05239 17.1208C7.61489 16.9978 8.04731 16.5689 8.17739 16.0134C8.2231 15.8306 8.23364 15.5177 8.23364 14.4068C8.23364 13.5314 8.24771 12.9619 8.27231 12.8423C8.33208 12.554 8.46919 12.3009 8.69067 12.0619C9.2813 11.4326 10.1391 11.4326 10.7297 12.0654C10.9512 12.3009 11.0883 12.554 11.1481 12.8423C11.1727 12.9619 11.1868 13.5314 11.1868 14.4068C11.1868 15.5177 11.1973 15.8306 11.243 16.0134C11.3731 16.5689 11.8055 16.9978 12.368 17.1208C12.586 17.1701 12.7899 17.1771 13.6547 17.1665C14.5618 17.1525 14.7165 17.1419 14.9555 17.0751C15.4583 16.938 15.9083 16.6744 16.2879 16.2982C16.7942 15.7884 17.1 15.1591 17.1985 14.4279C17.2266 14.224 17.2336 13.2115 17.2266 11.2146C17.2125 8.32475 17.2125 8.29311 17.1352 7.99779C16.9805 7.4142 16.6606 6.86225 16.2422 6.46498C15.9856 6.21889 12.034 2.9599 11.7598 2.77006C11.4504 2.55209 10.9934 2.34818 10.5997 2.24623C10.2165 2.15131 9.58716 2.10912 9.22505 2.16186Z" fill="#FFAF00"/>
</g>
<defs>
<clipPath id="clip0_3_3532">
<rect width="18" height="18" fill="white" transform="translate(0.710205 0.650146)"/>
</clipPath>
</defs>
</svg>
