<svg width="19" height="19" viewBox="0 0 19 19" fill="none" xmlns="http://www.w3.org/2000/svg">
<g clip-path="url(#clip0_3_3547)">
<path d="M8.27144 0.702864C4.7523 1.1388 1.79566 3.63138 0.769098 7.02396C0.480816 7.97669 0.378863 8.77825 0.406988 9.91028C0.442144 11.3306 0.709332 12.4275 1.33511 13.6826L1.56363 14.1431L0.976519 15.9677C0.431598 17.6587 0.38941 17.8029 0.403472 18.0033C0.428082 18.3865 0.660113 18.6185 1.04332 18.6431C1.24371 18.6572 1.38785 18.615 3.07886 18.0701L4.90347 17.4829L5.36402 17.7115C6.23238 18.1439 7.01285 18.3935 8.02535 18.5658C8.48238 18.6431 9.79371 18.6712 10.3316 18.615C13.9281 18.2493 16.9761 15.7392 18.0238 12.2728C18.2839 11.4185 18.3964 10.6275 18.3964 9.65013C18.3964 8.91536 18.3613 8.51107 18.2347 7.87474C17.6441 4.87943 15.5593 2.39036 12.68 1.24779C12.0402 0.991146 11.098 0.76263 10.3738 0.685286C9.91324 0.636066 8.72496 0.646614 8.27144 0.702864ZM10.6445 2.17591C12.2546 2.47474 13.6082 3.17786 14.7367 4.30989C15.7 5.26966 16.375 6.43333 16.7089 7.69544C16.9093 8.46185 16.9375 8.6763 16.9375 9.65013C16.9375 10.624 16.9093 10.8384 16.7089 11.6048C16.375 12.8669 15.7 14.0306 14.7367 14.9904C13.6082 16.1224 12.2476 16.829 10.6445 17.1243C10.2261 17.1982 9.06949 17.2298 8.59136 17.1771C8.10269 17.1243 7.61754 17.0224 7.15699 16.8783C6.64371 16.713 6.36949 16.597 5.71558 16.2595C5.16363 15.9712 5.16011 15.9712 4.94918 15.9888C4.8191 16.0029 4.24957 16.1681 3.49019 16.4142C2.80464 16.6357 2.24214 16.815 2.23511 16.8115C2.2316 16.8044 2.41089 16.2419 2.63238 15.5564C2.87847 14.797 3.04371 14.2275 3.05777 14.0974C3.07535 13.897 3.06832 13.8724 2.91011 13.5701C2.48824 12.7755 2.35113 12.4626 2.16832 11.8896C2.02418 11.429 1.92222 10.9439 1.86949 10.4552C1.81675 9.97708 1.84839 8.82044 1.92222 8.40208C2.21753 6.79896 2.92418 5.43841 4.05621 4.30989C4.65738 3.70521 5.28316 3.25169 6.02144 2.88255C6.84761 2.46771 7.52964 2.2638 8.60543 2.11263C8.87261 2.07396 10.3421 2.11966 10.6445 2.17591Z" fill="#1C1C1C"/>
<path d="M5.51166 8.83804C5.18822 8.98218 5.00189 9.28101 5.00189 9.65015C5.00189 10.1705 5.36049 10.5291 5.8808 10.5291C6.40111 10.5291 6.7597 10.1705 6.7597 9.65015C6.7597 9.12983 6.40111 8.77124 5.8808 8.77124C5.73314 8.77124 5.60306 8.79585 5.51166 8.83804Z" fill="#1C1C1C"/>
<path d="M9.02728 8.83804C8.70385 8.98218 8.51752 9.28101 8.51752 9.65015C8.51752 10.1705 8.87611 10.5291 9.39642 10.5291C9.91674 10.5291 10.2753 10.1705 10.2753 9.65015C10.2753 9.12983 9.91674 8.77124 9.39642 8.77124C9.24877 8.77124 9.11869 8.79585 9.02728 8.83804Z" fill="#1C1C1C"/>
<path d="M12.5429 8.83804C12.2195 8.98218 12.0331 9.28101 12.0331 9.65015C12.0331 10.1705 12.3917 10.5291 12.912 10.5291C13.4324 10.5291 13.791 10.1705 13.791 9.65015C13.791 9.12983 13.4324 8.77124 12.912 8.77124C12.7644 8.77124 12.6343 8.79585 12.5429 8.83804Z" fill="#1C1C1C"/>
</g>
<defs>
<clipPath id="clip0_3_3547">
<rect width="18" height="18" fill="white" transform="translate(0.396423 0.650146)"/>
</clipPath>
</defs>
</svg>
