<svg width="19" height="19" viewBox="0 0 19 19" fill="none" xmlns="http://www.w3.org/2000/svg">
<g clip-path="url(#clip0_3_3563)">
<g clip-path="url(#clip1_3_3563)">
<g clip-path="url(#clip2_3_3563)">
<path d="M8.97194 0.674776C8.35671 0.773213 7.82233 0.956026 7.411 1.20212C6.77467 1.58181 6.1946 2.15837 5.81491 2.78415C5.61803 3.10759 5.44225 3.55759 5.34381 3.97243C5.24186 4.41189 5.21725 5.29079 5.2946 5.73376C5.5196 7.02751 6.29655 8.12438 7.46725 8.79587C8.62038 9.45681 10.1567 9.51306 11.4188 8.94353C11.8407 8.75368 12.238 8.46188 12.6493 8.05407C13.5704 7.13298 13.9747 6.08532 13.9184 4.79157C13.8657 3.64196 13.4755 2.73845 12.6739 1.92634C12.034 1.27595 11.236 0.857589 10.3536 0.702901C10.0758 0.653682 9.20397 0.636104 8.97194 0.674776ZM10.4766 1.84196C11.004 1.99665 11.4821 2.28845 11.9005 2.71384C12.3188 3.13923 12.5508 3.52946 12.7231 4.08493C12.811 4.3697 12.818 4.44001 12.818 4.99196C12.8145 5.53689 12.8075 5.61774 12.7231 5.89899C12.5614 6.42985 12.3258 6.8236 11.911 7.25251C11.2923 7.89587 10.4696 8.24392 9.59069 8.24392C8.71881 8.2404 8.00163 7.95564 7.37936 7.36501C6.89421 6.90446 6.59889 6.43689 6.43366 5.86384C6.36335 5.62478 6.3528 5.51228 6.35631 4.97439C6.35631 4.40485 6.36335 4.33454 6.45475 4.04274C6.69381 3.26579 7.24577 2.58024 7.98756 2.14079C8.26178 1.97907 8.52897 1.87712 8.90514 1.79274C9.24616 1.7154 10.1391 1.74353 10.4766 1.84196Z" fill="#1C1C1C"/>
<path d="M5.66724 9.35486C4.85513 9.47439 4.23989 9.77674 3.7231 10.3076C2.73872 11.3201 2.18677 13.1166 2.18677 15.3138C2.18677 16.242 2.25356 16.5724 2.54888 17.156C2.65786 17.3705 2.77036 17.5146 3.01294 17.7572C3.35747 18.1053 3.6563 18.3021 4.07466 18.4498C4.65474 18.6607 4.46138 18.6537 9.83677 18.6431L14.7551 18.6326L15.054 18.5412C15.4336 18.4217 15.634 18.3338 15.8872 18.172C16.4743 17.7994 16.9067 17.2088 17.093 16.5408C17.2055 16.1224 17.2372 15.6232 17.1985 14.8533C17.0227 11.408 15.7149 9.46736 13.4895 9.34431C13.0114 9.31971 13.0043 9.31971 12.1852 9.84705C11.5524 10.2513 11.1129 10.4517 10.5293 10.6029C10.0899 10.7189 9.30239 10.7189 8.86646 10.6064C8.24419 10.4447 7.82583 10.2513 7.19302 9.84002C6.96099 9.68885 6.67622 9.51307 6.55317 9.44978C6.34927 9.34431 6.30356 9.33377 6.04341 9.33728C5.88521 9.3408 5.71645 9.34783 5.66724 9.35486ZM6.59888 10.7646C7.22817 11.1689 7.69575 11.3974 8.24067 11.5627C9.30239 11.8826 10.3079 11.8615 11.3661 11.4924C11.8477 11.3271 12.1922 11.1478 12.8145 10.747L13.3348 10.4166L13.5493 10.4377C14.8465 10.5853 15.634 11.647 15.9856 13.7107C16.0911 14.3224 16.1543 15.465 16.1086 15.8763C16.0137 16.7271 15.4829 17.3178 14.6391 17.5146C14.386 17.5744 14.0801 17.5779 9.67505 17.5779C4.45786 17.5779 4.78833 17.592 4.2645 17.3424C3.97622 17.2053 3.61411 16.8502 3.48052 16.576C3.31177 16.2244 3.27661 16.0064 3.27661 15.3244C3.28013 13.4717 3.71255 11.9459 4.47896 11.1092C4.77427 10.7857 5.14341 10.5783 5.6145 10.4763C6.01177 10.3885 6.02231 10.392 6.59888 10.7646Z" fill="#1C1C1C"/>
</g>
</g>
</g>
<defs>
<clipPath id="clip0_3_3563">
<rect width="18" height="18" fill="white" transform="translate(0.710205 0.650146)"/>
</clipPath>
<clipPath id="clip1_3_3563">
<rect width="18" height="18" fill="white" transform="translate(0.710205 0.650146)"/>
</clipPath>
<clipPath id="clip2_3_3563">
<rect width="18" height="18" fill="white" transform="translate(0.710205 0.650146)"/>
</clipPath>
</defs>
</svg>
